<svg xmlns="http://www.w3.org/2000/svg" xmlns:xlink="http://www.w3.org/1999/xlink" width="300" zoomAndPan="magnify" viewBox="0 0 224.87999 225" height="300" preserveAspectRatio="xMidYMid meet" version="1.2"><defs><clipPath id="0660f21c2e"><path d="M 0 0.0585938 L 224.761719 0.0585938 L 224.761719 224.9375 L 0 224.9375 Z M 0 0.0585938 "/></clipPath><clipPath id="b13a2c1f4a"><path d="M 0.890625 0.949219 L 223.992188 0.949219 L 223.992188 224.050781 L 0.890625 224.050781 Z M 0.890625 0.949219 "/></clipPath><clipPath id="f2b3c26c6b"><path d="M 112.441406 0.949219 C 50.832031 0.949219 0.890625 50.890625 0.890625 112.5 C 0.890625 174.109375 50.832031 224.050781 112.441406 224.050781 C 174.046875 224.050781 223.992188 174.109375 223.992188 112.5 C 223.992188 50.890625 174.046875 0.949219 112.441406 0.949219 Z M 112.441406 0.949219 "/></clipPath><clipPath id="b71d92db13"><path d="M 72 136 L 205.945312 136 L 205.945312 184 L 72 184 Z M 72 136 "/></clipPath></defs><g id="8d6a32f2d0"><g clip-rule="nonzero" clip-path="url(#0660f21c2e)"><path style=" stroke:none;fill-rule:nonzero;fill:#ffffff;fill-opacity:1;" d="M 0 0.0585938 L 224.878906 0.0585938 L 224.878906 224.941406 L 0 224.941406 Z M 0 0.0585938 "/><path style=" stroke:none;fill-rule:nonzero;fill:#ffffff;fill-opacity:1;" d="M 0 0.0585938 L 224.878906 0.0585938 L 224.878906 224.941406 L 0 224.941406 Z M 0 0.0585938 "/></g><g clip-rule="nonzero" clip-path="url(#b13a2c1f4a)"><g clip-rule="nonzero" clip-path="url(#f2b3c26c6b)"><path style=" stroke:none;fill-rule:nonzero;fill:#ffffff;fill-opacity:1;" d="M 0.890625 0.949219 L 223.992188 0.949219 L 223.992188 224.050781 L 0.890625 224.050781 Z M 0.890625 0.949219 "/></g></g><path style=" stroke:none;fill-rule:nonzero;fill:#38b6ff;fill-opacity:1;" d="M 143.253906 195.363281 C 145.632812 194.652344 147.953125 193.839844 150.210938 192.933594 C 111.152344 200.660156 71.917969 177.515625 60.355469 138.585938 C 48.792969 99.65625 69.039062 58.847656 105.984375 44.003906 C 103.597656 44.476562 101.210938 45.058594 98.828125 45.765625 C 57.519531 58.03125 33.976562 101.464844 46.242188 142.777344 C 58.511719 184.085938 101.941406 207.628906 143.253906 195.363281 "/><path style=" stroke:none;fill-rule:nonzero;fill:#002f5f;fill-opacity:1;" d="M 46.578125 175.558594 C 48.648438 177.183594 50.773438 178.6875 52.945312 180.082031 C 22.308594 151.0625 18.246094 102.953125 44.804688 69.082031 C 71.363281 35.214844 119.054688 27.679688 154.539062 50.511719 C 152.667969 48.738281 150.703125 47.03125 148.628906 45.40625 C 112.691406 17.222656 60.707031 23.515625 32.527344 59.453125 C 4.347656 95.394531 10.636719 147.375 46.578125 175.558594 "/><g clip-rule="nonzero" clip-path="url(#b71d92db13)"><path style=" stroke:none;fill-rule:nonzero;fill:#002f5f;fill-opacity:1;" d="M 123.476562 171.78125 C 102.164062 166.050781 84.632812 153.273438 72.710938 136.632812 C 82.109375 157.382812 100.378906 173.921875 124.097656 180.296875 C 155.078125 188.625 186.710938 177.289062 205.746094 153.929688 C 183.609375 172.167969 153.28125 179.792969 123.476562 171.78125 "/></g><g style="fill:#002f5f;fill-opacity:1;"><g transform="translate(65.590507, 119.700599)"><path style="stroke:none" d="M 8.03125 0.21875 C 7.300781 0.21875 6.734375 0.015625 6.328125 -0.390625 C 5.929688 -0.796875 5.734375 -1.363281 5.734375 -2.09375 L 5.734375 -13.84375 L 1.828125 -13.84375 C 1.203125 -13.84375 0.726562 -14.003906 0.40625 -14.328125 C 0.0820312 -14.660156 -0.078125 -15.125 -0.078125 -15.71875 C -0.078125 -16.332031 0.0820312 -16.796875 0.40625 -17.109375 C 0.726562 -17.429688 1.203125 -17.59375 1.828125 -17.59375 L 14.25 -17.59375 C 14.863281 -17.59375 15.332031 -17.429688 15.65625 -17.109375 C 15.976562 -16.796875 16.140625 -16.332031 16.140625 -15.71875 C 16.140625 -15.125 15.976562 -14.660156 15.65625 -14.328125 C 15.332031 -14.003906 14.863281 -13.84375 14.25 -13.84375 L 10.328125 -13.84375 L 10.328125 -2.09375 C 10.328125 -1.363281 10.132812 -0.796875 9.75 -0.390625 C 9.375 0.015625 8.800781 0.21875 8.03125 0.21875 Z M 8.03125 0.21875 "/></g></g><g style="fill:#002f5f;fill-opacity:1;"><g transform="translate(80.488019, 119.700599)"><path style="stroke:none" d="M 3.5625 0.21875 C 2.832031 0.21875 2.269531 0.03125 1.875 -0.34375 C 1.488281 -0.726562 1.296875 -1.285156 1.296875 -2.015625 L 1.296875 -10.28125 C 1.296875 -11 1.484375 -11.546875 1.859375 -11.921875 C 2.234375 -12.304688 2.769531 -12.5 3.46875 -12.5 C 4.164062 -12.5 4.695312 -12.304688 5.0625 -11.921875 C 5.425781 -11.546875 5.609375 -11 5.609375 -10.28125 L 5.609375 -9.25 L 5.359375 -9.25 C 5.523438 -10.25 5.953125 -11.039062 6.640625 -11.625 C 7.335938 -12.207031 8.203125 -12.515625 9.234375 -12.546875 C 9.710938 -12.566406 10.070312 -12.445312 10.3125 -12.1875 C 10.5625 -11.925781 10.691406 -11.445312 10.703125 -10.75 C 10.703125 -10.15625 10.578125 -9.679688 10.328125 -9.328125 C 10.078125 -8.984375 9.601562 -8.773438 8.90625 -8.703125 L 8.328125 -8.65625 C 7.453125 -8.570312 6.8125 -8.328125 6.40625 -7.921875 C 6.007812 -7.515625 5.8125 -6.910156 5.8125 -6.109375 L 5.8125 -2.015625 C 5.8125 -1.285156 5.617188 -0.726562 5.234375 -0.34375 C 4.859375 0.03125 4.300781 0.21875 3.5625 0.21875 Z M 3.5625 0.21875 "/></g></g><g style="fill:#002f5f;fill-opacity:1;"><g transform="translate(90.145076, 119.700599)"><path style="stroke:none" d="M 5.5625 0.28125 C 4.613281 0.28125 3.773438 0.101562 3.046875 -0.25 C 2.328125 -0.601562 1.765625 -1.082031 1.359375 -1.6875 C 0.953125 -2.289062 0.75 -2.984375 0.75 -3.765625 C 0.75 -4.660156 0.976562 -5.363281 1.4375 -5.875 C 1.90625 -6.394531 2.65625 -6.769531 3.6875 -7 C 4.71875 -7.226562 6.09375 -7.34375 7.8125 -7.34375 L 9.1875 -7.34375 L 9.1875 -5.234375 L 7.8125 -5.234375 C 7.164062 -5.234375 6.628906 -5.1875 6.203125 -5.09375 C 5.773438 -5.007812 5.460938 -4.867188 5.265625 -4.671875 C 5.066406 -4.484375 4.96875 -4.238281 4.96875 -3.9375 C 4.96875 -3.5625 5.101562 -3.25 5.375 -3 C 5.65625 -2.75 6.050781 -2.625 6.5625 -2.625 C 6.976562 -2.625 7.347656 -2.710938 7.671875 -2.890625 C 7.992188 -3.078125 8.253906 -3.332031 8.453125 -3.65625 C 8.660156 -3.976562 8.765625 -4.359375 8.765625 -4.796875 L 8.765625 -7.6875 C 8.765625 -8.28125 8.609375 -8.703125 8.296875 -8.953125 C 7.984375 -9.203125 7.457031 -9.328125 6.71875 -9.328125 C 6.3125 -9.328125 5.859375 -9.28125 5.359375 -9.1875 C 4.859375 -9.101562 4.300781 -8.941406 3.6875 -8.703125 C 3.238281 -8.535156 2.859375 -8.507812 2.546875 -8.625 C 2.234375 -8.75 1.988281 -8.953125 1.8125 -9.234375 C 1.632812 -9.515625 1.550781 -9.820312 1.5625 -10.15625 C 1.570312 -10.488281 1.679688 -10.800781 1.890625 -11.09375 C 2.097656 -11.394531 2.414062 -11.628906 2.84375 -11.796875 C 3.644531 -12.097656 4.378906 -12.296875 5.046875 -12.390625 C 5.722656 -12.492188 6.34375 -12.546875 6.90625 -12.546875 C 8.269531 -12.546875 9.394531 -12.347656 10.28125 -11.953125 C 11.175781 -11.566406 11.84375 -10.96875 12.28125 -10.15625 C 12.726562 -9.351562 12.953125 -8.320312 12.953125 -7.0625 L 12.953125 -2.015625 C 12.953125 -1.285156 12.773438 -0.726562 12.421875 -0.34375 C 12.078125 0.03125 11.570312 0.21875 10.90625 0.21875 C 10.21875 0.21875 9.695312 0.03125 9.34375 -0.34375 C 8.988281 -0.726562 8.8125 -1.285156 8.8125 -2.015625 L 8.8125 -2.671875 L 8.953125 -2.328125 C 8.867188 -1.785156 8.675781 -1.320312 8.375 -0.9375 C 8.082031 -0.5625 7.691406 -0.265625 7.203125 -0.046875 C 6.722656 0.171875 6.175781 0.28125 5.5625 0.28125 Z M 5.5625 0.28125 "/></g></g><g style="fill:#002f5f;fill-opacity:1;"><g transform="translate(103.146039, 119.700599)"><path style="stroke:none" d="M 6.1875 0.28125 C 5.457031 0.28125 4.710938 0.222656 3.953125 0.109375 C 3.191406 0.00390625 2.503906 -0.1875 1.890625 -0.46875 C 1.472656 -0.632812 1.175781 -0.859375 1 -1.140625 C 0.832031 -1.429688 0.753906 -1.734375 0.765625 -2.046875 C 0.773438 -2.359375 0.863281 -2.644531 1.03125 -2.90625 C 1.207031 -3.164062 1.441406 -3.347656 1.734375 -3.453125 C 2.023438 -3.566406 2.351562 -3.554688 2.71875 -3.421875 C 3.414062 -3.171875 4.039062 -2.988281 4.59375 -2.875 C 5.15625 -2.769531 5.695312 -2.71875 6.21875 -2.71875 C 6.832031 -2.71875 7.269531 -2.804688 7.53125 -2.984375 C 7.800781 -3.160156 7.9375 -3.390625 7.9375 -3.671875 C 7.9375 -3.921875 7.847656 -4.109375 7.671875 -4.234375 C 7.492188 -4.367188 7.25 -4.460938 6.9375 -4.515625 L 4.171875 -4.96875 C 3.140625 -5.144531 2.335938 -5.519531 1.765625 -6.09375 C 1.203125 -6.675781 0.921875 -7.429688 0.921875 -8.359375 C 0.921875 -9.222656 1.164062 -9.96875 1.65625 -10.59375 C 2.144531 -11.21875 2.816406 -11.695312 3.671875 -12.03125 C 4.535156 -12.375 5.523438 -12.546875 6.640625 -12.546875 C 7.390625 -12.546875 8.070312 -12.492188 8.6875 -12.390625 C 9.300781 -12.285156 9.898438 -12.085938 10.484375 -11.796875 C 10.847656 -11.648438 11.101562 -11.4375 11.25 -11.15625 C 11.40625 -10.875 11.460938 -10.578125 11.421875 -10.265625 C 11.390625 -9.960938 11.285156 -9.679688 11.109375 -9.421875 C 10.941406 -9.160156 10.707031 -8.984375 10.40625 -8.890625 C 10.101562 -8.804688 9.753906 -8.828125 9.359375 -8.953125 C 8.804688 -9.171875 8.316406 -9.328125 7.890625 -9.421875 C 7.472656 -9.523438 7.082031 -9.578125 6.71875 -9.578125 C 6.03125 -9.578125 5.546875 -9.484375 5.265625 -9.296875 C 4.984375 -9.117188 4.84375 -8.890625 4.84375 -8.609375 C 4.84375 -8.390625 4.914062 -8.207031 5.0625 -8.0625 C 5.21875 -7.925781 5.453125 -7.832031 5.765625 -7.78125 L 8.53125 -7.3125 C 9.59375 -7.144531 10.410156 -6.78125 10.984375 -6.21875 C 11.566406 -5.664062 11.859375 -4.914062 11.859375 -3.96875 C 11.859375 -2.625 11.34375 -1.578125 10.3125 -0.828125 C 9.28125 -0.0859375 7.90625 0.28125 6.1875 0.28125 Z M 6.1875 0.28125 "/></g></g><g style="fill:#002f5f;fill-opacity:1;"><g transform="translate(114.350273, 119.700599)"><path style="stroke:none" d="M 3.5 4.71875 C 2.800781 4.71875 2.257812 4.523438 1.875 4.140625 C 1.488281 3.753906 1.296875 3.195312 1.296875 2.46875 L 1.296875 -10.28125 C 1.296875 -11 1.484375 -11.546875 1.859375 -11.921875 C 2.234375 -12.304688 2.769531 -12.5 3.46875 -12.5 C 4.1875 -12.5 4.734375 -12.304688 5.109375 -11.921875 C 5.484375 -11.546875 5.671875 -11 5.671875 -10.28125 L 5.671875 -8.828125 L 5.390625 -10.0625 C 5.617188 -10.800781 6.101562 -11.398438 6.84375 -11.859375 C 7.582031 -12.316406 8.425781 -12.546875 9.375 -12.546875 C 10.445312 -12.546875 11.382812 -12.285156 12.1875 -11.765625 C 13 -11.253906 13.628906 -10.523438 14.078125 -9.578125 C 14.523438 -8.628906 14.75 -7.484375 14.75 -6.140625 C 14.75 -4.828125 14.523438 -3.6875 14.078125 -2.71875 C 13.628906 -1.75 13 -1.003906 12.1875 -0.484375 C 11.382812 0.0234375 10.445312 0.28125 9.375 0.28125 C 8.46875 0.28125 7.644531 0.0664062 6.90625 -0.359375 C 6.175781 -0.796875 5.6875 -1.367188 5.4375 -2.078125 L 5.734375 -2.078125 L 5.734375 2.46875 C 5.734375 3.195312 5.535156 3.753906 5.140625 4.140625 C 4.753906 4.523438 4.207031 4.71875 3.5 4.71875 Z M 7.984375 -3 C 8.429688 -3 8.828125 -3.109375 9.171875 -3.328125 C 9.515625 -3.554688 9.785156 -3.898438 9.984375 -4.359375 C 10.179688 -4.816406 10.28125 -5.410156 10.28125 -6.140625 C 10.28125 -7.253906 10.0625 -8.054688 9.625 -8.546875 C 9.195312 -9.035156 8.648438 -9.28125 7.984375 -9.28125 C 7.535156 -9.28125 7.132812 -9.171875 6.78125 -8.953125 C 6.4375 -8.742188 6.164062 -8.410156 5.96875 -7.953125 C 5.769531 -7.492188 5.671875 -6.890625 5.671875 -6.140625 C 5.671875 -5.035156 5.882812 -4.234375 6.3125 -3.734375 C 6.75 -3.242188 7.304688 -3 7.984375 -3 Z M 7.984375 -3 "/></g></g><g style="fill:#002f5f;fill-opacity:1;"><g transform="translate(128.648871, 119.700599)"><path style="stroke:none" d="M 5.5625 0.28125 C 4.613281 0.28125 3.773438 0.101562 3.046875 -0.25 C 2.328125 -0.601562 1.765625 -1.082031 1.359375 -1.6875 C 0.953125 -2.289062 0.75 -2.984375 0.75 -3.765625 C 0.75 -4.660156 0.976562 -5.363281 1.4375 -5.875 C 1.90625 -6.394531 2.65625 -6.769531 3.6875 -7 C 4.71875 -7.226562 6.09375 -7.34375 7.8125 -7.34375 L 9.1875 -7.34375 L 9.1875 -5.234375 L 7.8125 -5.234375 C 7.164062 -5.234375 6.628906 -5.1875 6.203125 -5.09375 C 5.773438 -5.007812 5.460938 -4.867188 5.265625 -4.671875 C 5.066406 -4.484375 4.96875 -4.238281 4.96875 -3.9375 C 4.96875 -3.5625 5.101562 -3.25 5.375 -3 C 5.65625 -2.75 6.050781 -2.625 6.5625 -2.625 C 6.976562 -2.625 7.347656 -2.710938 7.671875 -2.890625 C 7.992188 -3.078125 8.253906 -3.332031 8.453125 -3.65625 C 8.660156 -3.976562 8.765625 -4.359375 8.765625 -4.796875 L 8.765625 -7.6875 C 8.765625 -8.28125 8.609375 -8.703125 8.296875 -8.953125 C 7.984375 -9.203125 7.457031 -9.328125 6.71875 -9.328125 C 6.3125 -9.328125 5.859375 -9.28125 5.359375 -9.1875 C 4.859375 -9.101562 4.300781 -8.941406 3.6875 -8.703125 C 3.238281 -8.535156 2.859375 -8.507812 2.546875 -8.625 C 2.234375 -8.75 1.988281 -8.953125 1.8125 -9.234375 C 1.632812 -9.515625 1.550781 -9.820312 1.5625 -10.15625 C 1.570312 -10.488281 1.679688 -10.800781 1.890625 -11.09375 C 2.097656 -11.394531 2.414062 -11.628906 2.84375 -11.796875 C 3.644531 -12.097656 4.378906 -12.296875 5.046875 -12.390625 C 5.722656 -12.492188 6.34375 -12.546875 6.90625 -12.546875 C 8.269531 -12.546875 9.394531 -12.347656 10.28125 -11.953125 C 11.175781 -11.566406 11.84375 -10.96875 12.28125 -10.15625 C 12.726562 -9.351562 12.953125 -8.320312 12.953125 -7.0625 L 12.953125 -2.015625 C 12.953125 -1.285156 12.773438 -0.726562 12.421875 -0.34375 C 12.078125 0.03125 11.570312 0.21875 10.90625 0.21875 C 10.21875 0.21875 9.695312 0.03125 9.34375 -0.34375 C 8.988281 -0.726562 8.8125 -1.285156 8.8125 -2.015625 L 8.8125 -2.671875 L 8.953125 -2.328125 C 8.867188 -1.785156 8.675781 -1.320312 8.375 -0.9375 C 8.082031 -0.5625 7.691406 -0.265625 7.203125 -0.046875 C 6.722656 0.171875 6.175781 0.28125 5.5625 0.28125 Z M 5.5625 0.28125 "/></g></g><g style="fill:#002f5f;fill-opacity:1;"><g transform="translate(141.649835, 119.700599)"><path style="stroke:none" d="M 3.5625 0.21875 C 2.832031 0.21875 2.269531 0.03125 1.875 -0.34375 C 1.488281 -0.726562 1.296875 -1.285156 1.296875 -2.015625 L 1.296875 -10.28125 C 1.296875 -11 1.484375 -11.546875 1.859375 -11.921875 C 2.234375 -12.304688 2.769531 -12.5 3.46875 -12.5 C 4.164062 -12.5 4.695312 -12.304688 5.0625 -11.921875 C 5.425781 -11.546875 5.609375 -11 5.609375 -10.28125 L 5.609375 -9.25 L 5.359375 -9.25 C 5.523438 -10.25 5.953125 -11.039062 6.640625 -11.625 C 7.335938 -12.207031 8.203125 -12.515625 9.234375 -12.546875 C 9.710938 -12.566406 10.070312 -12.445312 10.3125 -12.1875 C 10.5625 -11.925781 10.691406 -11.445312 10.703125 -10.75 C 10.703125 -10.15625 10.578125 -9.679688 10.328125 -9.328125 C 10.078125 -8.984375 9.601562 -8.773438 8.90625 -8.703125 L 8.328125 -8.65625 C 7.453125 -8.570312 6.8125 -8.328125 6.40625 -7.921875 C 6.007812 -7.515625 5.8125 -6.910156 5.8125 -6.109375 L 5.8125 -2.015625 C 5.8125 -1.285156 5.617188 -0.726562 5.234375 -0.34375 C 4.859375 0.03125 4.300781 0.21875 3.5625 0.21875 Z M 3.5625 0.21875 "/></g></g><g style="fill:#002f5f;fill-opacity:1;"><g transform="translate(151.306891, 119.700599)"><path style="stroke:none" d="M 7.984375 0.28125 C 6.484375 0.28125 5.1875 0.0195312 4.09375 -0.5 C 3.007812 -1.03125 2.175781 -1.773438 1.59375 -2.734375 C 1.007812 -3.703125 0.71875 -4.84375 0.71875 -6.15625 C 0.71875 -7.425781 0.992188 -8.535156 1.546875 -9.484375 C 2.109375 -10.441406 2.875 -11.191406 3.84375 -11.734375 C 4.820312 -12.273438 5.9375 -12.546875 7.1875 -12.546875 C 8.101562 -12.546875 8.9375 -12.398438 9.6875 -12.109375 C 10.4375 -11.816406 11.078125 -11.390625 11.609375 -10.828125 C 12.140625 -10.273438 12.539062 -9.609375 12.8125 -8.828125 C 13.082031 -8.046875 13.21875 -7.175781 13.21875 -6.21875 C 13.21875 -5.882812 13.125 -5.632812 12.9375 -5.46875 C 12.757812 -5.3125 12.472656 -5.234375 12.078125 -5.234375 L 4.4375 -5.234375 L 4.4375 -7.34375 L 9.984375 -7.34375 L 9.578125 -7.015625 C 9.578125 -7.628906 9.492188 -8.125 9.328125 -8.5 C 9.160156 -8.882812 8.914062 -9.175781 8.59375 -9.375 C 8.269531 -9.582031 7.867188 -9.6875 7.390625 -9.6875 C 6.867188 -9.6875 6.421875 -9.5625 6.046875 -9.3125 C 5.671875 -9.070312 5.382812 -8.71875 5.1875 -8.25 C 4.988281 -7.789062 4.890625 -7.210938 4.890625 -6.515625 L 4.890625 -6.28125 C 4.890625 -5.101562 5.148438 -4.257812 5.671875 -3.75 C 6.203125 -3.25 7.015625 -3 8.109375 -3 C 8.472656 -3 8.890625 -3.039062 9.359375 -3.125 C 9.835938 -3.21875 10.296875 -3.347656 10.734375 -3.515625 C 11.160156 -3.679688 11.53125 -3.707031 11.84375 -3.59375 C 12.164062 -3.488281 12.410156 -3.304688 12.578125 -3.046875 C 12.753906 -2.796875 12.851562 -2.507812 12.875 -2.1875 C 12.894531 -1.863281 12.820312 -1.546875 12.65625 -1.234375 C 12.488281 -0.929688 12.210938 -0.695312 11.828125 -0.53125 C 11.242188 -0.257812 10.625 -0.0546875 9.96875 0.078125 C 9.3125 0.210938 8.648438 0.28125 7.984375 0.28125 Z M 7.984375 0.28125 "/></g></g><g style="fill:#002f5f;fill-opacity:1;"><g transform="translate(163.983446, 119.700599)"><path style="stroke:none" d="M 3.5 0.21875 C 2.800781 0.21875 2.257812 0.03125 1.875 -0.34375 C 1.488281 -0.726562 1.296875 -1.285156 1.296875 -2.015625 L 1.296875 -10.28125 C 1.296875 -11 1.484375 -11.546875 1.859375 -11.921875 C 2.234375 -12.304688 2.769531 -12.5 3.46875 -12.5 C 4.164062 -12.5 4.695312 -12.304688 5.0625 -11.921875 C 5.425781 -11.546875 5.609375 -11 5.609375 -10.28125 L 5.609375 -9.109375 L 5.34375 -10.125 C 5.738281 -10.90625 6.304688 -11.503906 7.046875 -11.921875 C 7.785156 -12.335938 8.628906 -12.546875 9.578125 -12.546875 C 10.554688 -12.546875 11.363281 -12.359375 12 -11.984375 C 12.632812 -11.609375 13.109375 -11.023438 13.421875 -10.234375 C 13.742188 -9.453125 13.90625 -8.460938 13.90625 -7.265625 L 13.90625 -2.015625 C 13.90625 -1.285156 13.710938 -0.726562 13.328125 -0.34375 C 12.941406 0.03125 12.390625 0.21875 11.671875 0.21875 C 10.960938 0.21875 10.414062 0.03125 10.03125 -0.34375 C 9.644531 -0.726562 9.453125 -1.285156 9.453125 -2.015625 L 9.453125 -7.09375 C 9.453125 -7.832031 9.320312 -8.359375 9.0625 -8.671875 C 8.8125 -8.992188 8.4375 -9.15625 7.9375 -9.15625 C 7.269531 -9.15625 6.734375 -8.941406 6.328125 -8.515625 C 5.929688 -8.097656 5.734375 -7.53125 5.734375 -6.8125 L 5.734375 -2.015625 C 5.734375 -0.523438 4.988281 0.21875 3.5 0.21875 Z M 3.5 0.21875 "/></g></g><g style="fill:#002f5f;fill-opacity:1;"><g transform="translate(177.932684, 119.700599)"><path style="stroke:none" d="M 2.640625 0 C 2.191406 0 1.828125 -0.109375 1.546875 -0.328125 C 1.265625 -0.554688 1.070312 -0.84375 0.96875 -1.1875 C 0.875 -1.539062 0.878906 -1.921875 0.984375 -2.328125 C 1.085938 -2.734375 1.300781 -3.113281 1.625 -3.46875 L 7.40625 -10 L 7.40625 -9.015625 L 2.46875 -9.015625 C 1.9375 -9.015625 1.53125 -9.15625 1.25 -9.4375 C 0.96875 -9.71875 0.828125 -10.125 0.828125 -10.65625 C 0.828125 -11.1875 0.96875 -11.585938 1.25 -11.859375 C 1.53125 -12.140625 1.9375 -12.28125 2.46875 -12.28125 L 9.53125 -12.28125 C 10.03125 -12.28125 10.4375 -12.164062 10.75 -11.9375 C 11.070312 -11.71875 11.285156 -11.429688 11.390625 -11.078125 C 11.492188 -10.734375 11.492188 -10.359375 11.390625 -9.953125 C 11.296875 -9.554688 11.09375 -9.179688 10.78125 -8.828125 L 4.84375 -2.125 L 4.84375 -3.265625 L 10.15625 -3.265625 C 11.269531 -3.265625 11.828125 -2.722656 11.828125 -1.640625 C 11.828125 -1.109375 11.6875 -0.703125 11.40625 -0.421875 C 11.125 -0.140625 10.707031 0 10.15625 0 Z M 2.640625 0 "/></g></g><g style="fill:#002f5f;fill-opacity:1;"><g transform="translate(188.912327, 119.700599)"><path style="stroke:none" d="M 2.421875 0.21875 C 1.898438 0.21875 1.460938 0.0976562 1.109375 -0.140625 C 0.765625 -0.378906 0.550781 -0.707031 0.46875 -1.125 C 0.382812 -1.550781 0.460938 -2.03125 0.703125 -2.5625 L 6.90625 -15.9375 C 7.207031 -16.59375 7.578125 -17.066406 8.015625 -17.359375 C 8.460938 -17.660156 8.96875 -17.8125 9.53125 -17.8125 C 10.09375 -17.8125 10.585938 -17.660156 11.015625 -17.359375 C 11.441406 -17.066406 11.8125 -16.59375 12.125 -15.9375 L 18.34375 -2.5625 C 18.601562 -2.03125 18.695312 -1.546875 18.625 -1.109375 C 18.550781 -0.679688 18.34375 -0.351562 18 -0.125 C 17.65625 0.101562 17.238281 0.21875 16.75 0.21875 C 16.082031 0.21875 15.566406 0.0703125 15.203125 -0.21875 C 14.847656 -0.519531 14.53125 -1.003906 14.25 -1.671875 L 12.90625 -4.84375 L 14.640625 -3.5625 L 4.359375 -3.5625 L 6.140625 -4.84375 L 4.796875 -1.671875 C 4.492188 -1.003906 4.179688 -0.519531 3.859375 -0.21875 C 3.546875 0.0703125 3.066406 0.21875 2.421875 0.21875 Z M 9.484375 -12.796875 L 6.59375 -5.890625 L 5.890625 -7.09375 L 13.15625 -7.09375 L 12.453125 -5.890625 L 9.53125 -12.796875 Z M 9.484375 -12.796875 "/></g></g><g style="fill:#002f5f;fill-opacity:1;"><g transform="translate(206.779433, 119.700599)"><path style="stroke:none" d="M 3.890625 0.21875 C 3.160156 0.21875 2.59375 0.015625 2.1875 -0.390625 C 1.789062 -0.796875 1.59375 -1.375 1.59375 -2.125 L 1.59375 -15.46875 C 1.59375 -16.238281 1.789062 -16.820312 2.1875 -17.21875 C 2.59375 -17.613281 3.160156 -17.8125 3.890625 -17.8125 C 4.640625 -17.8125 5.207031 -17.613281 5.59375 -17.21875 C 5.988281 -16.820312 6.1875 -16.238281 6.1875 -15.46875 L 6.1875 -2.125 C 6.1875 -1.375 5.992188 -0.796875 5.609375 -0.390625 C 5.234375 0.015625 4.660156 0.21875 3.890625 0.21875 Z M 3.890625 0.21875 "/></g></g></g></svg>